<svg width="196" height="56" viewBox="0 0 196 56" fill="none" xmlns="http://www.w3.org/2000/svg">
<path d="M14.9707 8C11.5132 8 8.55005 15.5709 8.55005 28C8.55005 40.4291 11.5137 48 14.9707 48C15.7309 48 16.3893 47.5074 16.683 46.8064L23.5949 30.3127C23.8816 29.6282 24.848 29.6193 25.1477 30.2984L29.7063 41.3459C30.0338 42.089 30.9212 42.4035 31.6253 41.9989C37.2901 38.6541 43.5932 33.2682 46.5772 30.0098C47.7048 28.8991 47.7052 27.0996 46.579 25.9885C43.3773 22.6711 37.7041 17.5939 31.4829 14.1366C23.75 9.83916 18.4278 8 14.9707 8Z" fill="white"/>
<path d="M118.292 18.0871C118.292 17.5579 118.721 17.1288 119.25 17.1288H132.89C133.419 17.1288 133.848 17.5579 133.848 18.0871V19.4308C133.848 19.9601 133.419 20.3891 132.89 20.3891H127.752C127.676 20.3891 127.615 20.4505 127.615 20.526V38.0049C127.615 38.5342 127.186 38.9634 126.657 38.9634H125.313C124.784 38.9634 124.355 38.5342 124.355 38.0049V20.526C124.355 20.4505 124.294 20.3891 124.218 20.3891H119.25C118.721 20.3891 118.292 19.9601 118.292 19.4308V18.0871Z" fill="white"/>
<path fill-rule="evenodd" clip-rule="evenodd" d="M61 18.0871C61 17.5579 61.429 17.1288 61.9585 17.1288H70.0756C71.8619 17.1288 73.2759 17.7369 74.2256 18.9513C75.1573 20.1424 75.5813 21.4469 75.5813 23.5116L75.5801 23.7734C75.579 23.886 75.5775 24.006 75.5752 24.1058C75.5487 25.2858 75.4364 25.9824 75.2228 26.751C75.0066 27.5945 74.7206 28.2909 74.3421 28.8033C73.9852 29.2939 73.519 29.6794 72.9554 29.961L72.9477 29.9649L72.94 29.9685C72.4197 30.2087 71.934 30.3711 71.4884 30.4378C71.0767 30.4995 70.6043 30.5288 70.0756 30.5288H64.3889C64.374 30.5271 64.3594 30.5285 64.346 30.5321C64.3372 30.5344 64.3287 30.5377 64.3211 30.5419C64.3088 30.5486 64.2977 30.5574 64.2885 30.568C64.2708 30.5881 64.2601 30.6145 64.2601 30.6437V38.0049C64.2601 38.5342 63.8311 38.9634 63.302 38.9634H61.9585C61.7733 38.9634 61.6004 38.9109 61.454 38.82C61.1814 38.6509 61 38.349 61 38.0049V18.0871ZM71.4256 20.7913L71.4198 20.7871C71.1277 20.581 70.911 20.4825 70.7623 20.4483L70.7431 20.4437L70.7243 20.438C70.5449 20.3828 70.3091 20.349 70.0073 20.349H64.3974C64.3214 20.349 64.2601 20.4102 64.2601 20.4859V27.2001C64.2601 27.2757 64.3214 27.337 64.3974 27.337H70.0073C70.7972 27.337 71.3324 27.1031 71.6959 26.6975C71.8178 26.5616 71.9662 26.2435 72.0835 25.6874C72.1452 25.3941 72.1939 25.0565 72.2288 24.6821C72.2449 24.5096 72.2583 24.7216 72.2683 24.5339C72.2763 24.3867 72.2821 24.2351 72.2863 24.0792C72.2905 23.9201 72.2928 23.7107 72.2928 23.5175C72.274 22.6654 72.1713 22.1884 72.0091 21.7029C71.8416 21.2002 71.633 20.9295 71.4317 20.7953L71.4256 20.7913Z" fill="white"/>
<path d="M98.1014 18.0946C98.1014 17.5653 98.5304 17.1363 99.0595 17.1363H100.58C100.715 17.1363 100.845 17.1643 100.964 17.2164C101.043 17.2509 101.117 17.296 101.184 17.3504C101.26 17.4116 101.327 17.4846 101.381 17.568L110.984 32.1656C111.059 32.2791 111.236 32.2262 111.236 32.0903V18.0946C111.236 17.5653 111.665 17.1363 112.194 17.1363H113.538C114.067 17.1363 114.496 17.5653 114.496 18.0946V38.0125C114.496 38.5416 114.067 38.9709 113.538 38.9709H112.073C111.829 38.9709 111.598 38.8785 111.424 38.7172L111.407 38.7021C111.357 38.6536 111.312 38.5995 111.273 38.5401L101.641 23.9364C101.607 23.885 101.552 23.8678 101.503 23.877C101.491 23.8791 101.481 23.8825 101.47 23.8871C101.457 23.8931 101.445 23.9011 101.434 23.9111C101.407 23.9347 101.39 23.9692 101.39 24.0117V38.0125C101.39 38.274 101.285 38.511 101.115 38.6839C100.941 38.861 100.699 38.9709 100.431 38.9709H99.0595C98.5304 38.9709 98.1014 38.5416 98.1014 38.0125V18.0946Z" fill="white"/>
<path d="M149.544 30.6922C149.617 30.696 149.674 30.7562 149.674 30.8291V38.0049C149.674 38.2069 149.736 38.3944 149.843 38.5489C150.016 38.7993 150.305 38.9634 150.632 38.9634H151.976C152.505 38.9634 152.934 38.5342 152.934 38.0049V18.0871C152.934 17.8007 152.809 17.5437 152.61 17.3681C152.575 17.3382 152.539 17.3106 152.501 17.2856C152.446 17.2486 152.385 17.2174 152.321 17.1929C152.27 17.1729 152.215 17.1572 152.16 17.1465C152.1 17.135 152.039 17.1288 151.976 17.1288H150.632C150.103 17.1288 149.674 17.5579 149.674 18.0871V27.2417C149.674 27.3173 149.613 27.3786 149.537 27.3786H140.99C140.914 27.3786 140.853 27.3173 140.853 27.2417V18.0871C140.853 17.8897 140.793 17.7062 140.691 17.5538C140.519 17.2975 140.226 17.1288 139.894 17.1288H138.551C138.267 17.1288 138.012 17.2521 137.837 17.448C137.685 17.6177 137.592 17.8416 137.592 18.0871V38.0049C137.592 38.5342 138.021 38.9634 138.551 38.9634H139.894C140.424 38.9634 140.853 38.5342 140.853 38.0049V30.8291C140.853 30.7505 140.918 30.6882 140.997 30.6922H149.544Z" fill="white"/>
<path d="M161.514 17.1536C159.53 17.1536 157.922 18.7619 157.922 20.7459V35.3705C157.922 37.3546 159.53 38.9628 161.514 38.9628H170.544C171.086 38.9628 171.526 38.5234 171.526 37.9813V36.6858C171.526 36.1436 171.086 35.7042 170.544 35.7042H161.514C161.436 35.7042 161.365 35.6776 161.308 35.6329C161.263 35.598 161.228 35.552 161.206 35.4993C161.198 35.4813 161.193 35.4625 161.188 35.443C161.183 35.4196 161.18 35.3954 161.18 35.3705V30.9634C161.18 30.8009 161.312 30.669 161.475 30.669H168.777C168.965 30.669 169.141 30.6161 169.29 30.5244C169.437 30.4345 169.558 30.3072 169.64 30.1558C169.716 30.0166 169.759 29.8571 169.759 29.6875V28.3919C169.759 27.8498 169.319 27.4104 168.777 27.4104H161.475C161.312 27.4104 161.18 27.2785 161.18 27.116V20.7459C161.18 20.5616 161.33 20.4121 161.514 20.4121H170.544C171.086 20.4121 171.526 19.9727 171.526 19.4306V18.1351C171.526 17.5929 171.086 17.1536 170.544 17.1536H161.514Z" fill="white"/>
<path fill-rule="evenodd" clip-rule="evenodd" d="M84.1711 17.7545L76.4382 37.6951C76.1947 38.3231 76.6583 39 77.3319 39H78.9242C79.1102 39 79.2869 38.9461 79.4372 38.851C79.6136 38.7393 79.7528 38.5706 79.8264 38.3651L81.2971 34.3949H89.9387L91.4313 38.3681C91.5685 38.7473 91.9289 39 92.3323 39H93.8406C94.5146 39 94.9778 38.3229 94.7339 37.6949L86.9945 17.7545C86.7591 17.1516 86.2327 17 85.5855 17C84.9383 17 84.4065 17.1516 84.1711 17.7545ZM85.7159 23.1552L88.7643 31.2698H82.455L85.4613 23.1558C85.4735 23.1243 85.4946 23.1015 85.5196 23.0871C85.541 23.0747 85.5656 23.0685 85.5897 23.0687C85.6415 23.0691 85.6932 23.0979 85.7159 23.1552Z" fill="white"/>
<path fill-rule="evenodd" clip-rule="evenodd" d="M176.337 18.0871C176.337 17.5579 176.766 17.1288 177.295 17.1288H185.412C187.199 17.1288 188.613 17.7369 189.562 18.9513C190.494 20.1424 190.918 21.2506 190.918 23.3153L190.916 23.6356L190.914 23.7824L190.912 23.9095C190.885 25.0895 190.773 25.9826 190.559 26.7512C190.442 27.2095 190.304 27.6244 190.142 27.9899C190.005 28.297 189.852 28.5695 189.679 28.8033C189.653 28.8384 189.627 28.8729 189.601 28.9068C189.563 28.955 189.524 29.0019 189.484 29.0479C189.407 29.1371 189.325 29.2222 189.239 29.3033C189.18 29.3598 189.119 29.4145 189.055 29.4672C188.825 29.6574 188.571 29.8218 188.292 29.961L188.284 29.9649L188.277 29.9685C188.091 30.0544 187.911 30.1313 187.735 30.1964C187.639 30.2334 187.545 30.2674 187.452 30.2982C187.318 30.3425 187.187 30.3803 187.059 30.4111C186.972 30.4322 186.924 30.5279 186.963 30.6088L190.934 37.5559C191.248 38.2077 190.773 38.9634 190.05 38.9634H188.666C188.29 38.9634 187.948 38.7489 187.784 38.4109L183.404 31.0727C183.252 30.7579 182.939 30.5532 182.59 30.5288H179.726C179.657 30.5212 179.597 30.5747 179.597 30.6437V38.0051C179.597 38.3442 179.421 38.6423 179.155 38.8125C179.006 38.908 178.829 38.9634 178.639 38.9634H177.295C176.766 38.9634 176.337 38.5344 176.337 38.0051V18.0871ZM186.762 20.7913L186.756 20.7871C186.624 20.6935 186.507 20.6222 186.405 20.5689C186.336 20.5333 186.274 20.5057 186.219 20.485C186.175 20.4687 186.135 20.4566 186.099 20.4483L186.08 20.4439L186.061 20.4382C186.02 20.4255 185.976 20.414 185.929 20.4037L185.905 20.3987L185.83 20.3847C185.739 20.3698 185.639 20.359 185.529 20.3535L185.432 20.35L185.344 20.349H179.734C179.658 20.349 179.597 20.4102 179.597 20.4859V27.2001C179.597 27.2758 179.658 27.337 179.734 27.337H185.344C186.134 27.337 186.669 27.1031 187.033 26.6975C187.154 26.5616 187.303 26.2435 187.42 25.6874C187.44 25.5954 187.458 25.4991 187.475 25.3989C187.509 25.1903 187.539 24.9639 187.562 24.7218C187.579 24.5506 187.592 24.3714 187.602 24.1848C187.611 24.024 187.618 24.0541 187.623 23.8829L187.626 23.7493L187.628 23.5689L187.629 23.3212C187.611 22.4691 187.508 22.1884 187.346 21.7029C187.178 21.2002 186.97 20.9295 186.768 20.7953L186.762 20.7913Z" fill="white"/>
</svg>
