<svg width="40" height="40" viewBox="0 0 40 40" fill="none" xmlns="http://www.w3.org/2000/svg">
<path d="M6.97073 0C3.51324 0 0.550049 7.57085 0.550049 20C0.550049 32.4291 3.51367 40 6.97073 40C7.73085 40 8.38934 39.5074 8.68297 38.8064L15.5949 22.3127C15.8816 21.6282 16.848 21.6193 17.1477 22.2984L21.7063 33.3459C22.0338 34.089 22.9212 34.4035 23.6253 33.9989C29.2901 30.6541 35.5932 25.2682 38.5772 22.0098C39.7048 20.8991 39.7052 19.0996 38.579 17.9885C35.3773 14.6711 29.7041 9.59386 23.4829 6.13658C15.75 1.83916 10.4278 0 6.97073 0Z" fill="white"/>
</svg>
