<svg width="24" height="24" viewBox="0 0 24 24" fill="none" xmlns="http://www.w3.org/2000/svg">
<path fill-rule="evenodd" clip-rule="evenodd" d="M7.5 3H16.504C18.987 3 21 5.013 21 7.496V16.505C21 18.987 18.987 21 16.504 21H7.496C5.013 21 3 18.987 3 16.504V7.5C3 5.015 5.015 3 7.5 3V3Z" stroke="#84809F" stroke-width="1.25" stroke-linecap="round" stroke-linejoin="round"/>
<path d="M17.675 10.55C17.675 10.2049 17.3952 9.92505 17.05 9.92505C16.7048 9.92505 16.425 10.2049 16.425 10.55H17.675ZM6.75466 14.9813C6.55103 14.7026 6.16001 14.6418 5.88129 14.8454C5.60258 15.049 5.54171 15.44 5.74534 15.7188L6.75466 14.9813ZM6.15252 14.7327C5.81157 14.7865 5.57881 15.1066 5.63265 15.4475C5.68648 15.7885 6.00652 16.0212 6.34748 15.9674L6.15252 14.7327ZM8.05 14.75L8.24864 15.3426C8.45327 15.2741 8.60803 15.1047 8.65801 14.8948C8.70799 14.6848 8.64612 14.464 8.49435 14.3105L8.05 14.75ZM7.45 7.55005L8.00051 7.25414C7.89835 7.06408 7.70538 6.94016 7.49004 6.92633C7.27471 6.91251 7.06747 7.01074 6.94184 7.18618L7.45 7.55005ZM11.05 10.55L10.9023 11.1573C11.0851 11.2018 11.2782 11.1616 11.4281 11.0477C11.5779 10.9339 11.6685 10.7587 11.6747 10.5706L11.05 10.55ZM16.45 8.75005L15.9283 9.0943C16.044 9.26958 16.24 9.37505 16.45 9.37505V8.75005ZM18.25 8.75005L18.77 9.09674C18.8979 8.90495 18.9098 8.65836 18.801 8.45514C18.6923 8.25191 18.4805 8.12505 18.25 8.12505V8.75005ZM16.53 10.2034C16.3385 10.4906 16.4161 10.8786 16.7033 11.0701C16.9905 11.2616 17.3786 11.1839 17.57 10.8967L16.53 10.2034ZM16.425 10.55C16.425 12.535 15.8584 14.1759 14.8564 15.3115C13.8629 16.4375 12.3911 17.125 10.45 17.125V18.375C12.7089 18.375 14.5371 17.5626 15.7936 16.1386C17.0416 14.7242 17.675 12.7651 17.675 10.55H16.425ZM10.45 17.125C9.37052 17.125 8.658 16.847 8.12529 16.47C7.57347 16.0795 7.17667 15.559 6.75466 14.9813L5.74534 15.7188C6.16133 16.2881 6.66453 16.9676 7.40321 17.4903C8.161 18.0266 9.12948 18.375 10.45 18.375V17.125ZM6.34748 15.9674C6.36947 15.9639 6.38647 15.96 6.39214 15.9587C6.4 15.9568 6.40633 15.9552 6.41007 15.9542C6.41756 15.9523 6.42359 15.9505 6.42658 15.9496C6.43298 15.9478 6.43862 15.9461 6.44192 15.945C6.44914 15.9428 6.45723 15.9402 6.46495 15.9377C6.48089 15.9326 6.50245 15.9255 6.52803 15.9171C6.57954 15.9002 6.65144 15.8764 6.73642 15.8481C6.90657 15.7916 7.13137 15.7165 7.35526 15.6417C7.57923 15.5668 7.80257 15.4921 7.96989 15.436C8.05356 15.408 8.12324 15.3847 8.172 15.3683C8.19639 15.3602 8.21554 15.3537 8.2286 15.3494C8.23513 15.3472 8.24014 15.3455 8.24351 15.3444C8.2452 15.3438 8.24648 15.3434 8.24734 15.3431C8.24777 15.3429 8.24809 15.3428 8.24831 15.3428C8.24842 15.3427 8.2485 15.3427 8.24856 15.3427C8.24858 15.3427 8.24861 15.3427 8.24862 15.3426C8.24863 15.3426 8.24864 15.3426 8.05 14.75C7.85136 14.1575 7.85135 14.1575 7.85134 14.1575C7.85133 14.1575 7.85131 14.1575 7.85128 14.1575C7.85123 14.1575 7.85115 14.1575 7.85104 14.1576C7.85082 14.1576 7.8505 14.1577 7.85008 14.1579C7.84922 14.1582 7.84795 14.1586 7.84627 14.1592C7.8429 14.1603 7.83791 14.162 7.83139 14.1641C7.81835 14.1685 7.79922 14.1749 7.77487 14.1831C7.72616 14.1994 7.65655 14.2227 7.57295 14.2507C7.40575 14.3067 7.18265 14.3814 6.95899 14.4562C6.73525 14.5309 6.51124 14.6057 6.34211 14.6619C6.25745 14.6901 6.1871 14.7134 6.13757 14.7297C6.11263 14.7379 6.09398 14.744 6.08174 14.7479C6.07877 14.7489 6.07641 14.7496 6.0746 14.7502C6.0737 14.7505 6.07301 14.7507 6.0725 14.7509C6.07198 14.751 6.07174 14.7511 6.07175 14.7511C6.07176 14.7511 6.07186 14.7511 6.07205 14.751C6.07224 14.7509 6.07255 14.7509 6.07298 14.7507C6.07369 14.7505 6.07539 14.75 6.07775 14.7493C6.0796 14.7488 6.0847 14.7473 6.09146 14.7455C6.09484 14.7446 6.10086 14.7431 6.10847 14.7413C6.11388 14.74 6.13067 14.7361 6.15252 14.7327L6.34748 15.9674ZM8.49435 14.3105C6.70883 12.5054 6.57583 9.84438 7.95816 7.91392L6.94184 7.18618C5.21217 9.60172 5.38317 12.9427 7.60565 15.1896L8.49435 14.3105ZM6.89949 7.84595C7.69847 9.33241 9.20375 10.7442 10.9023 11.1573L11.1977 9.94276C9.92825 9.63394 8.67753 8.51368 8.00051 7.25414L6.89949 7.84595ZM11.6747 10.5706C11.6987 9.84092 11.9556 9.24583 12.3554 8.83733C12.7519 8.43222 13.3229 8.17505 14.05 8.17505V6.92505C13.0101 6.92505 12.1096 7.30138 11.4621 7.96302C10.8179 8.62127 10.4583 9.52617 10.4253 10.5295L11.6747 10.5706ZM14.05 8.17505C14.5707 8.17505 14.943 8.27385 15.2234 8.42354C15.5026 8.57254 15.7292 8.79246 15.9283 9.0943L16.9717 8.4058C16.6818 7.96664 16.3099 7.58656 15.8121 7.32081C15.3155 7.05575 14.7323 6.92505 14.05 6.92505V8.17505ZM16.45 9.37505H18.25V8.12505H16.45V9.37505ZM17.73 8.40336L16.53 10.2034L17.57 10.8967L18.77 9.09674L17.73 8.40336Z" fill="#84809F"/>
</svg>
